<?xml version="1.0" encoding="iso-8859-1"?>
<!-- Generator: Adobe Illustrator 19.0.0, SVG Export Plug-In . SVG Version: 6.00 Build 0)  -->
<svg version="1.1" id="Capa_1" xmlns="http://www.w3.org/2000/svg" xmlns:xlink="http://www.w3.org/1999/xlink" x="0px" y="0px"
	 viewBox="0 0 512 512" style="enable-background:new 0 0 512 512;" xml:space="preserve">
<g>
	<g>
		<path d="M296.16,54.142L105.073,170.705H0v169.141h105.032l191.299,118.012L296.16,54.142z M94.253,309.753h-64.16V200.798h64.16
			V309.753z M124.346,316.402V194.198l141.743-86.462l0.124,296.186L124.346,316.402z"/>
	</g>
</g>
<g>
	<g>
		<path d="M445.06,97.169l-20.993,21.563c37.299,36.311,57.839,84.873,57.839,136.741c0,51.672-20.408,100.104-57.465,136.375
			l21.049,21.506C488.38,371.374,512,315.304,512,255.471C512,195.413,488.227,139.193,445.06,97.169z"/>
	</g>
</g>
<g>
	<g>
		<path d="M399.602,136.961l-20.342,22.178c26.984,24.75,42.461,59.863,42.461,96.334c0,36.278-15.342,71.265-42.09,95.986
			l20.426,22.099c32.892-30.401,51.757-73.442,51.757-118.087C451.813,210.591,432.782,167.395,399.602,136.961z"/>
	</g>
</g>
<g>
	<g>
		<path d="M353.386,176.586l-18.691,23.585c17.056,13.517,26.838,33.673,26.838,55.302c0,21.448-9.647,41.499-26.467,55.011
			l18.845,23.462c23.968-19.253,37.715-47.855,37.715-78.472C391.627,224.598,377.69,195.845,353.386,176.586z"/>
	</g>
</g>
<g>
</g>
<g>
</g>
<g>
</g>
<g>
</g>
<g>
</g>
<g>
</g>
<g>
</g>
<g>
</g>
<g>
</g>
<g>
</g>
<g>
</g>
<g>
</g>
<g>
</g>
<g>
</g>
<g>
</g>
</svg>
