<svg xmlns="http://www.w3.org/2000/svg" viewBox="0 0 50 50"><g fill="#ffffff"><path d="M38.243 28.251c-.006-.011-.016-.018-.022-.028-.027-.049-.066-.087-.101-.13-.044-.055-.086-.111-.14-.154-.039-.032-.084-.052-.128-.078a.952.952 0 00-.207-.097c-.019-.006-.033-.02-.052-.025-.035-.009-.068 0-.102-.005a.919.919 0 00-.403.025c-.027.008-.055.004-.082.015l-5.647 2.108a.999.999 0 10.7 1.873l3.688-1.376c-1.844 4.298-6.017 7.159-10.737 7.159-5.338 0-10.006-3.686-11.35-8.964a1 1 0 00-1.939.494c1.57 6.164 7.034 10.47 13.288 10.47 5.497 0 10.359-3.306 12.533-8.279l1.793 3.484a.998.998 0 001.347.431 1 1 0 00.432-1.347l-2.871-5.576zM25.008 13.536c5.164 0 9.664 3.386 11.199 8.426a1 1 0 101.913-.582c-1.793-5.888-7.063-9.844-13.112-9.844-5.269 0-9.939 2.998-12.244 7.658l-1.637-3.438a1 1 0 10-1.806.859l2.622 5.504c.004.009.011.015.015.023.012.023.029.042.043.065a.98.98 0 00.248.275c.087.065.181.119.284.153.008.003.014.01.023.012l.007.001a.994.994 0 00.283.042h.003a.992.992 0 00.263-.036l5.698-1.572a.999.999 0 10-.532-1.927l-3.78 1.043c1.952-4.05 5.973-6.662 10.51-6.662z"/></g></svg>