<svg style="cursor: pointer;" xmlns="http://www.w3.org/2000/svg" viewBox="0 0 50 50"><g fill="#ffffff"><path d="M19 25c0 3.309 2.691 6 6 6s6-2.691 6-6-2.691-6-6-6-6 2.691-6 6zm10 0c0 2.206-1.794 4-4 4s-4-1.794-4-4 1.794-4 4-4 4 1.794 4 4zM40.557 9.443C44.712 13.599 47 19.123 47 25s-2.288 11.401-6.443 15.557l1.414 1.414C46.503 37.438 49 31.411 49 25s-2.497-12.438-7.029-16.971l-1.414 1.414z"/><path d="M36.313 36.313C39.335 33.293 41 29.274 41 25s-1.665-8.293-4.687-11.313l-1.414 1.414C37.544 17.744 39 21.26 39 25s-1.456 7.256-4.101 9.899l1.414 1.414zM13.687 13.687C10.665 16.707 9 20.726 9 25s1.665 8.293 4.687 11.313l1.414-1.414C12.456 32.256 11 28.74 11 25s1.456-7.256 4.101-9.899l-1.414-1.414z"/><path d="M9.443 40.557C5.288 36.401 3 30.877 3 25S5.288 13.599 9.443 9.443L8.029 8.029C3.497 12.562 1 18.589 1 25s2.497 12.438 7.029 16.971l1.414-1.414z"/></g></svg>