<svg style="transform: scale(0.4); cursor: pointer;" width="104" height="80" xmlns="http://www.w3.org/2000/svg"><g stroke="#ffffff" stroke-width="7" fill="none" fill-rule="evenodd" stroke-linecap="round" stroke-linejoin="round"><path d="M17 55H5c-1.657 0-3-1.347-3-3V28h0a3 3 0 013-3h12M43.155 2.942C45.278 1.172 47 1.968 47 4.728v70.288c0 2.756-1.72 3.557-3.845 1.787L17 55.009V24.735L43.155 2.942zM75 77.137c15.59-5.106 26.851-19.773 26.851-37.07C101.851 22.773 90.597 8.11 75.013 3"/><path d="M69 63.463C79.336 60.79 86.97 51.4 86.97 40.227c0-11.16-7.617-20.54-17.936-23.227"/><path d="M62 50h0c.71 0 1.401-.074 2.069-.214C68.599 48.833 72 44.814 72 40c0-4.885-3.502-8.951-8.132-9.826A10.054 10.054 0 0062 30"/></g></svg>
