<svg width="104" height="104" xmlns="http://www.w3.org/2000/svg"><g stroke="#ffffff" stroke-width="6.5" fill="none" fill-rule="evenodd" stroke-linecap="round" stroke-linejoin="round"><path d="M17 67H5c-1.657 0-3-1.347-3-3V40h0a3 3 0 013-3h12M22.645 71.712L17 67.01V36.735l26.155-21.793c2.123-1.77 3.845-.974 3.845 1.786v70.288c0 2.756-1.714 3.562-3.84 1.792l-10.142-8.452M75 89.137c15.59-5.106 26.851-19.773 26.851-37.07 0-10.896-4.467-20.747-11.67-27.823"/><path d="M69 75.463C79.336 72.79 86.97 63.4 86.97 52.227a23.93 23.93 0 00-7.35-17.285M63 62c5.523 0 10-4.477 10-10a9.972 9.972 0 00-3.129-7.266M102 2L2.288 101.712"/></g></svg>
