<?xml version="1.0" ?><svg id="Layer_1" style="enable-background:new 0 0 1024 1024;" version="1.1" fill="#f2f2f2" viewBox="0 0 1024 1024" xml:space="preserve" xmlns="http://www.w3.org/2000/svg" xmlns:xlink="http://www.w3.org/1999/xlink"><g id="_x32_6"><path d="M653.5,81.3v861.5L282.7,707H110c-23,0-41.7-18.7-41.7-41.7V358.7c0-23,18.7-41.7,41.7-41.7h172.6   L653.5,81.3z" id="XMLID_374_"/><path d="M855.7,787.4L825,761.7c58.4-69.7,90.6-158.2,90.6-249.3c0-91.1-32.2-179.6-90.6-249.3l30.6-25.7   c31.7,37.7,56.3,80.2,73.4,126.1c17.6,47.6,26.6,97.7,26.6,148.9c0,51.2-8.9,101.3-26.6,148.8C912,707.2,887.3,749.7,855.7,787.4z" id="XMLID_337_"/><path d="M748.2,629.9l-30.6-25.7c21.5-25.6,33.4-58.2,33.4-91.8s-11.9-66.1-33.4-91.8l30.6-25.7   c27.6,32.8,42.7,74.6,42.7,117.5C791,555.3,775.8,597.1,748.2,629.9z" id="XMLID_336_"/></g><g id="XMLID_1_"/><g id="XMLID_2_"/><g id="XMLID_3_"/><g id="XMLID_4_"/><g id="XMLID_5_"/></svg>